<svg width="1431" height="962" viewBox="0 0 1431 962" fill="none" xmlns="http://www.w3.org/2000/svg">
<path d="M707.898 677.238L596.201 466.511C665.896 425.042 712.715 380.985 736.657 334.34C761.016 286.344 759.145 235.839 731.045 182.825L721.21 164.271C699.667 123.627 670.672 98.8176 634.224 89.842C597.308 79.9828 558.086 86.0589 516.559 108.07C472.382 131.487 443.83 163.031 430.905 202.704C417.98 242.377 417.195 284.67 428.551 329.581L275.95 345.955C269.384 314.35 266.82 281.755 268.259 248.171C270.581 214.118 278.519 181.05 292.072 148.967C305.156 116 325 85.1095 351.603 56.2951C377.738 26.5972 412.011 0.508312 454.421 -21.9715C497.715 -44.9196 540.312 -59.5753 582.211 -65.9387C624.11 -72.3021 663.517 -70.5542 700.433 -60.695C736.881 -51.7194 770.395 -34.3982 800.977 -8.73166C831.09 16.0514 856.45 47.8811 877.056 86.7575C898.131 126.517 910.03 166.048 912.753 205.349C915.891 243.298 911.828 279.406 900.564 313.671C890.183 347.468 874.603 378.929 853.822 408.052C832.573 436.292 808.334 461.024 781.103 482.249L845.732 604.179L707.898 677.238ZM940.416 946.158C906.841 963.954 877.887 969.115 853.553 961.641C829.634 952.815 810.884 935.591 797.302 909.968L785.36 887.437C771.778 861.814 768.283 837.07 774.873 813.204C781.879 787.987 802.17 766.48 835.745 748.683C869.32 730.887 898.067 726.402 921.985 735.228C946.319 742.702 965.277 759.25 978.858 784.873L990.801 807.404C1004.38 833.027 1007.67 858.447 1000.66 883.665C994.074 907.53 973.991 928.361 940.416 946.158Z" fill="#21A068" fill-opacity="0.04"/>
<path d="M1061.84 482.429L1114.32 366.557C1154.55 382.436 1188.42 387.818 1215.91 382.705C1244.1 377.325 1264.8 360.06 1278 330.91L1282.63 320.707C1292.75 298.359 1293.76 278.032 1285.65 259.725C1277.77 240.933 1262.41 226.366 1239.58 216.025C1215.29 205.024 1192.66 203.267 1171.71 210.756C1150.75 218.244 1132.65 231.71 1117.41 251.152L1060.72 192.106C1071.91 179.025 1084.83 167.31 1099.47 156.962C1114.59 146.833 1131.13 139.395 1149.09 134.647C1167.27 129.414 1186.78 127.709 1207.61 129.535C1228.67 130.874 1250.86 136.824 1274.18 147.385C1297.98 158.166 1318.06 171.358 1334.41 186.961C1350.77 202.564 1362.89 219.761 1370.77 238.553C1378.87 256.86 1382.5 276.651 1381.64 297.927C1381.01 318.718 1375.85 339.801 1366.17 361.178C1356.27 383.04 1343.47 400.956 1327.78 414.926C1312.79 428.63 1296.23 438.694 1278.1 445.12C1260.45 451.765 1242.09 455.454 1223.03 456.186C1204.18 456.433 1185.84 454.273 1168 449.708L1137.63 516.752L1061.84 482.429ZM1024.23 668.262C1005.77 659.901 994.145 649.368 989.36 636.662C985.282 623.691 986.433 610.161 992.814 596.072L998.424 583.683C1004.8 569.594 1014.11 560.047 1026.32 555.042C1039.25 549.772 1054.94 551.317 1073.41 559.678C1091.87 568.039 1103.14 578.705 1107.22 591.676C1112 604.382 1111.2 617.779 1104.82 631.868L1099.21 644.257C1092.83 658.346 1083.18 668.026 1070.25 673.296C1058.03 678.301 1042.69 676.623 1024.23 668.262Z" fill="#21A068" fill-opacity="0.04"/>
<path d="M52.8623 752.429L105.338 636.558C145.571 652.437 179.433 657.819 206.924 652.705C235.122 647.325 255.821 630.06 269.023 600.91L273.643 590.708C283.764 568.36 284.773 548.032 276.671 529.726C268.788 510.933 253.43 496.367 230.596 486.025C206.304 475.024 183.68 473.268 162.724 480.756C141.769 488.245 123.668 501.71 108.423 521.152L51.7332 462.106C62.9265 449.026 75.843 437.311 90.4829 426.962C105.609 416.834 122.15 409.395 140.109 404.648C158.287 399.414 177.794 397.71 198.63 399.535C219.686 400.874 241.874 406.824 265.194 417.386C289 428.167 309.079 441.359 325.432 456.961C341.785 472.564 353.903 489.762 361.786 508.554C369.888 526.86 373.513 546.652 372.66 567.928C372.026 588.718 366.869 609.802 357.188 631.178C347.287 653.041 334.489 670.957 318.795 684.927C303.807 698.63 287.246 708.695 269.114 715.12C251.468 721.765 233.111 725.454 214.044 726.187C195.197 726.433 176.854 724.274 159.016 719.708L128.652 786.753L52.8623 752.429ZM15.2475 938.262C-3.2141 929.901 -14.8373 919.368 -19.6218 906.663C-23.7005 893.691 -22.5495 880.161 -16.1688 866.072L-10.5582 853.683C-4.17744 839.594 5.12273 830.047 17.3423 825.043C30.2678 819.772 45.9614 821.318 64.423 829.679C82.8847 838.039 94.1548 848.706 98.2335 861.677C103.018 874.382 102.22 887.78 95.8393 901.869L90.2286 914.257C83.8479 928.347 74.1949 938.026 61.2694 943.297C49.0498 948.301 33.7092 946.623 15.2475 938.262Z" fill="#21A068" fill-opacity="0.04"/>
</svg>
