<svg width="48" height="48" viewBox="0 0 48 48" fill="none" xmlns="http://www.w3.org/2000/svg">
<g id="cookies">
<g id="Vector">
<path d="M28.1781 6.03071C23.8287 6.33044 19.8098 8.96056 17.8792 12.7821C17.3985 13.7337 16.76 15.4947 16.8651 15.5921C16.8801 15.607 16.9628 15.4047 17.0604 15.15C17.3234 14.4156 17.9919 13.1792 18.5478 12.3925C19.1638 11.5232 20.4934 10.167 21.3272 9.56002C24.9705 6.88493 29.7406 6.40537 33.7745 8.30115C37.3052 9.96465 39.724 13.0818 40.5128 16.9933C40.7607 18.1922 40.7532 20.3877 40.5053 21.5342C40.2649 22.6582 39.9569 23.5349 39.4386 24.569C38.1014 27.244 35.615 29.5594 32.8806 30.6759C32.1595 30.9682 31.8815 31.0431 31.9642 30.9082C32.0768 30.7359 32.1369 29.2747 32.0768 28.353C32.0393 27.7985 31.9942 27.1391 31.9792 26.8918C31.9416 26.2999 31.6186 25.1309 31.2205 24.1418C30.0336 21.2495 27.9603 19.0015 25.2109 17.6377C23.686 16.8809 22.5667 16.5437 20.9516 16.3714C19.7422 16.2365 19.3516 16.2814 20.3657 16.4388C21.9132 16.6711 22.8897 16.9858 24.2869 17.6827C26.8185 18.9415 28.6589 20.7699 29.8608 23.2202C30.6045 24.7263 30.9576 25.9627 31.1078 27.6187C31.4158 30.8782 30.0787 34.5349 27.7049 36.9702C26.4579 38.2516 24.933 39.2257 23.1677 39.8626C21.8456 40.3422 21.1319 40.4471 19.314 40.4471C17.5412 40.4471 16.9478 40.3647 15.5055 39.8926C11.4866 38.5738 8.43671 35.1569 7.58786 31.0281C7.37752 29.9641 7.26484 27.8959 7.37001 26.8544C7.57283 24.8162 8.33154 22.8905 9.58604 21.2195C10.217 20.3877 11.6068 19.0614 12.4556 18.477C13.8453 17.5328 15.5881 16.821 17.2482 16.5212C17.7065 16.4388 18.2473 16.3414 18.4501 16.3039L18.8257 16.229L18.4501 16.2215C17.8792 16.2065 16.7374 16.3639 16.6473 16.4688C16.6097 16.5212 16.3393 16.6036 16.0538 16.6561C14.1383 16.9933 11.7345 18.2147 10.0893 19.7058C8.02355 21.5717 6.6113 24.2318 6.13054 27.1616C5.95776 28.2032 5.95776 30.024 6.12302 30.9757C6.63384 33.8605 7.82824 36.2284 9.77384 38.1766C12.4406 40.8592 16.0163 42.2005 19.915 41.9757C22.1235 41.8558 24.4447 41.054 26.3828 39.7502C28.381 38.4089 29.8383 36.7379 30.8374 34.6324C31.3106 33.6358 31.5059 33.1037 31.7764 31.9947L31.9792 31.1855L32.6553 31.0131C35.029 30.4062 37.3502 29.0124 38.8526 27.2815C40.1522 25.7903 41.1062 23.962 41.617 22.0213C42.0753 20.2753 42.1278 17.8625 41.7447 16.184C41.3466 14.4606 40.8057 13.2092 39.8217 11.7405C38.77 10.1595 37.7634 9.14789 36.3061 8.17377C33.9023 6.57022 31.1003 5.83588 28.1781 6.03071Z" fill="#21A068"/>
<path d="M25.1959 9.87473C24.7452 10.0171 24.3921 10.2569 24.0841 10.6166C23.7536 10.9987 23.7461 11.1036 24.0691 10.9088C24.4672 10.6615 25.1508 10.4967 25.5865 10.5416C26.826 10.669 27.7725 11.7405 27.6223 12.8346C27.5096 13.6513 26.9161 14.3932 26.195 14.603C25.7142 14.7453 25.4288 14.7453 24.9555 14.588C24.4297 14.4231 24.024 14.0485 23.7536 13.494C23.408 12.7971 23.3855 12.3025 23.6409 11.4183C23.6935 11.231 23.6935 11.231 23.5282 11.3734C23.4381 11.4558 23.2578 11.7405 23.1226 12.0103C22.9047 12.4599 22.8822 12.5648 22.8822 13.2167C22.8822 13.8761 22.9047 13.9735 23.1301 14.4306C23.7311 15.6445 25.0306 16.3114 26.3377 16.0716C27.4345 15.8693 28.2833 15.2099 28.704 14.2283C28.9444 13.6813 28.9594 13.5689 28.9594 12.8795C28.9594 12.2801 28.9293 12.0478 28.7941 11.7256C28.4561 10.9163 27.8777 10.3393 27.0589 9.97964C26.6156 9.78482 25.6316 9.73236 25.1959 9.87473Z" fill="#21A068"/>
<path d="M34.5257 12.1901C34.1877 12.355 33.5267 12.9619 33.6093 13.0369C33.6243 13.0519 33.7896 12.9994 33.9699 12.917C34.5708 12.6472 35.3896 12.7596 35.8253 13.1643C36.2986 13.5989 36.4563 14.4606 36.1634 14.9626C35.8253 15.5321 34.984 15.8393 34.4131 15.5996C33.5717 15.2474 33.1435 14.3407 33.3839 13.404L33.4365 13.1792L33.1736 13.4715C32.475 14.2508 32.5426 15.4647 33.3238 16.2665C33.6393 16.5887 33.7896 16.6786 34.2478 16.8135C36.0206 17.353 37.6507 16.1915 37.6733 14.3782C37.6883 13.1118 36.7267 12.1152 35.4272 12.0403C34.984 12.0178 34.8412 12.0403 34.5257 12.1901Z" fill="#21A068"/>
<path d="M30.1087 19.1439C29.8233 19.2113 29.2223 19.496 28.9819 19.6759C28.8617 19.7658 28.9293 19.7808 29.5078 19.7883C30.3341 19.7958 30.7623 19.8932 31.4834 20.2379C32.5125 20.7324 33.3539 21.7815 33.5792 22.868C33.8422 24.1418 33.444 25.5056 32.505 26.5172C32.1144 26.9293 32.1069 26.9443 32.3172 26.8993C32.7755 26.8094 33.4065 26.4348 33.8497 25.9927C34.8488 24.9886 35.2319 23.4 34.8037 22.0063C34.6009 21.3618 34.0224 20.4627 33.5267 20.0355C32.6327 19.2637 31.1979 18.8891 30.1087 19.1439Z" fill="#21A068"/>
<path d="M16.4595 19.9906C15.5505 20.1854 14.8669 20.7474 14.4087 21.6766C14.1758 22.1486 14.1683 22.2086 14.1683 23.0703C14.1683 23.9695 14.1683 23.9845 14.4538 24.5465C15.1524 25.9552 16.6022 26.742 18.0445 26.4872C19.8173 26.165 21.0418 24.7937 21.0418 23.1153C21.0418 21.3244 19.8774 19.9831 18.2624 19.9007C17.6464 19.8707 17.6313 19.9306 18.2098 20.1405C19.9751 20.7924 20.5535 23.0628 19.2915 24.3741C18.5703 25.116 17.3985 25.3632 16.5571 24.9436C16.3468 24.8387 16.0313 24.5989 15.8585 24.4116C14.7618 23.2277 15.0472 21.3618 16.4595 20.4177C16.7074 20.2528 17.0079 20.103 17.1356 20.073C17.2557 20.043 17.3609 19.9906 17.3609 19.9531C17.3609 19.8632 16.9703 19.8782 16.4595 19.9906Z" fill="#21A068"/>
<path d="M22.7846 27.3864C22.409 27.5363 21.6427 28.1807 21.6427 28.3605C21.6427 28.398 21.823 28.338 22.0409 28.2331C22.8522 27.8135 23.9639 27.9259 24.5949 28.4954C25.7142 29.4995 25.3236 31.2829 23.9038 31.695C22.9198 31.9872 21.8005 31.3878 21.4624 30.3987C21.3272 29.994 21.3047 29.2672 21.4249 28.8551C21.47 28.6902 21.485 28.5479 21.47 28.5329C21.4474 28.5104 21.2972 28.6977 21.1319 28.9525C20.8014 29.447 20.7037 29.8142 20.7188 30.5785C20.7338 31.8973 21.7028 32.9164 23.1601 33.1412C24.3921 33.3435 25.6917 32.6392 26.2776 31.4402C26.548 30.9007 26.5631 30.8333 26.5631 30.1589C26.5631 29.4995 26.5405 29.3946 26.3152 28.915C25.7893 27.806 24.8879 27.2215 23.716 27.2365C23.3705 27.2365 23.04 27.289 22.7846 27.3864Z" fill="#21A068"/>
<path d="M13.5824 30.1064C13.1392 30.2263 12.6659 30.556 12.4631 30.8932L12.3054 31.1405L12.6359 30.9682C13.0415 30.7584 13.8228 30.7359 14.1683 30.9157C14.4688 31.0806 14.8519 31.4852 14.9571 31.7624C15.0773 32.0697 15.0623 32.6466 14.927 32.9014C14.7993 33.1487 14.4763 33.4634 14.2059 33.5983C13.8679 33.7781 13.2669 33.7182 12.8763 33.4784C12.3579 33.1562 12.08 32.6766 12.0725 32.0772C12.065 31.8224 12.095 31.5152 12.1251 31.3878C12.1852 31.1705 12.1852 31.1705 12.0424 31.2979C11.9673 31.3728 11.8021 31.6051 11.6819 31.8224C11.4941 32.1521 11.464 32.2945 11.464 32.774C11.464 33.2461 11.5016 33.4035 11.6894 33.7856C12.2302 34.8571 13.7777 35.3742 14.9045 34.8497C15.7834 34.4525 16.1815 33.9655 16.4294 32.9988C16.7524 31.725 15.9036 30.4287 14.5139 30.1064C14.0181 29.9866 14.0406 29.9866 13.5824 30.1064Z" fill="#21A068"/>
</g>
</g>
</svg>
