<svg width="27" height="26" viewBox="0 0 27 26" fill="none" xmlns="http://www.w3.org/2000/svg">
<path d="M13.8789 25C20.5063 25 25.8789 19.6274 25.8789 13C25.8789 6.37258 20.5063 1 13.8789 1C7.25149 1 1.87891 6.37258 1.87891 13C1.87891 19.6274 7.25149 25 13.8789 25Z" stroke="#C53A35" stroke-width="2"/>
<path d="M13.3584 16L12.6584 10.02V6.04004H15.0184V10.02L14.3584 16H13.3584ZM13.8584 20.24C13.3517 20.24 12.9784 20.12 12.7384 19.88C12.5117 19.6267 12.3984 19.3067 12.3984 18.92V18.58C12.3984 18.1933 12.5117 17.88 12.7384 17.64C12.9784 17.3867 13.3517 17.26 13.8584 17.26C14.3651 17.26 14.7317 17.3867 14.9584 17.64C15.1984 17.88 15.3184 18.1933 15.3184 18.58V18.92C15.3184 19.3067 15.1984 19.6267 14.9584 19.88C14.7317 20.12 14.3651 20.24 13.8584 20.24Z" fill="#C53A35"/>
</svg>
