<svg width="17" height="17" viewBox="0 0 17 17" fill="none" xmlns="http://www.w3.org/2000/svg">
<path d="M9.51216 16.1579L16.1788 9.49121C16.4897 9.17781 16.6641 8.75428 16.6641 8.31288C16.6641 7.87148 16.4897 7.44795 16.1788 7.13455L9.51216 0.467878C9.19782 0.164282 8.77682 -0.00370891 8.33982 8.84523e-05C7.90283 0.00388582 7.48481 0.179169 7.17579 0.488182C6.86678 0.797196 6.6915 1.21522 6.6877 1.65221C6.6839 2.08921 6.8519 2.51021 7.15549 2.82455L10.9772 6.64621L1.66716 6.64621C1.22513 6.64621 0.801205 6.82181 0.488644 7.13437C0.176084 7.44693 0.000490109 7.87085 0.000490109 8.31288C0.000490109 8.75491 0.176084 9.17883 0.488644 9.49139C0.801205 9.80395 1.22513 9.97955 1.66716 9.97955L10.9772 9.97955L7.15549 13.8012C6.8519 14.1155 6.6839 14.5366 6.6877 14.9735C6.6915 15.4105 6.86678 15.8286 7.17579 16.1376C7.48481 16.4466 7.90283 16.6219 8.33982 16.6257C8.77682 16.6295 9.19782 16.4615 9.51216 16.1579V16.1579Z" fill="#050607"/>
</svg>
