<svg width="17" height="17" viewBox="0 0 17 17" fill="none" xmlns="http://www.w3.org/2000/svg">
<path d="M7.1519 0.467854L0.485237 7.13452C0.174408 7.44792 0 7.87145 0 8.31285C0 8.75426 0.174408 9.17778 0.485237 9.49119L7.1519 16.1579C7.46624 16.4615 7.88724 16.6294 8.32424 16.6256C8.76123 16.6218 9.17925 16.4466 9.48827 16.1376C9.79728 15.8285 9.97256 15.4105 9.97636 14.9735C9.98016 14.5365 9.81217 14.1155 9.50857 13.8012L5.6869 9.97952H14.9969C15.4389 9.97952 15.8629 9.80392 16.1754 9.49136C16.488 9.1788 16.6636 8.75488 16.6636 8.31285C16.6636 7.87083 16.488 7.4469 16.1754 7.13434C15.8629 6.82178 15.4389 6.64619 14.9969 6.64619H5.6869L9.50857 2.82452C9.81217 2.51018 9.98016 2.08918 9.97636 1.65219C9.97256 1.21519 9.79728 0.797169 9.48827 0.488156C9.17925 0.179142 8.76123 0.00386037 8.32424 6.30041e-05C7.88724 -0.00373436 7.46624 0.164257 7.1519 0.467854V0.467854Z" fill="#050607"/>
</svg>
