<svg width="19" height="17" viewBox="0 0 19 17" fill="none" xmlns="http://www.w3.org/2000/svg">
<path opacity="0.8" d="M7.98047 0.855469V9.66016C7.98047 11.6471 7.30599 13.1966 5.95703 14.3086C4.6263 15.4023 2.71224 16.0768 0.214844 16.332V12.0664C1.67318 11.8659 2.79427 11.4922 3.57812 10.9453C4.36198 10.3984 4.88151 9.63281 5.13672 8.64844H0.214844V0.855469H7.98047ZM18.125 0.855469V9.66016C18.125 11.6471 17.4505 13.1966 16.1016 14.3086C14.7526 15.4023 12.8294 16.0768 10.332 16.332V12.0664C11.8086 11.8659 12.9388 11.4922 13.7227 10.9453C14.5065 10.3984 15.026 9.63281 15.2812 8.64844H10.332V0.855469H18.125Z" fill="#21A068"/>
</svg>
